<?xml version="1.0" ?><!DOCTYPE svg  PUBLIC '-//W3C//DTD SVG 1.1//EN'  'http://www.w3.org/Graphics/SVG/1.1/DTD/svg11.dtd'><svg enable-background="new 0 0 128 128" id="Слой_1" version="1.1" viewBox="0 0 128 128" xml:space="preserve" xmlns="http://www.w3.org/2000/svg" xmlns:xlink="http://www.w3.org/1999/xlink"><g><g><g><path d="M56.8,28.2c0,3.1-2.6,5.6-5.7,5.6h-1c-5.8,0-10.4-4.7-10.4-10.4v-3.8c0-3.6-4.8-4.8-6.5-1.6     c-3.1,6-3.7,13.1-1.8,19.5l4.8,15.8c1.4,4.5,1.2,9.4-0.5,13.8L27.6,89c-6,16,5.8,33,22.9,33H64h13.5c17.1,0,28.9-17,22.9-33     l-8.3-19.9c-1.6-3.8-1.8-8-0.5-11.8l1.7-5.3c2.1-6.8,2.1-14.1,0-21h0c-0.9-2.8-4.9-2.1-4.9,0.8c0,6.9-5.6,12.6-12.6,12.6     c-2.5,0-4.5-2-4.5-4.4L70.4,4H57.5L56.8,28.2z" fill="#EE7F8F"/></g></g><g><g><g><path d="M30.6,89l8.2-21.9c1.7-4.4,1.8-9.3,0.5-13.8l-4.8-15.8c-2-6.5-1.3-13.5,1.8-19.5      c0.4-0.7,0.9-1.2,1.5-1.5c-1.5-0.7-3.6-0.3-4.5,1.5c-3.1,6-3.7,13-1.8,19.5l4.8,15.8c1.4,4.5,1.2,9.4-0.5,13.8L27.6,89      c-6,16,5.8,33,22.9,33h3C36.4,122,24.6,105,30.6,89z" fill="#FFFFFF"/></g></g></g><g><g><path d="M94.4,99.3c-0.9,0-1.7-0.3-2.4-0.8l-5.3-4c-3.2-2.4-7.1-3.8-11.1-3.8H58c-4.1,0-7.9-1.9-10.2-5     c-2.3-3.2-2.9-7.2-1.7-11l3.6-9.3c2.6-6.8,3.2-14.2,1.5-21.4l-0.2-0.8c-0.3-1.1,0-2.3,0.7-3.2c0.7-0.9,1.8-1.4,3-1.4     c0.6,0,1.2,0.2,1.8,0.4l4.5,2.4c3.7,2,11.4,5.8,14.6,5.8c3,0,6-0.9,8.5-2.5c0.7-0.5,1.5-0.7,2.3-0.7c1.3,0,2.6,0.6,3.5,1.7     c0.8,1.1,1.1,2.5,0.8,3.9c-0.1,0.4-0.2,0.9-0.4,1.3l-1.7,5.3c-1.4,4.6-1.2,9.5,0.6,13.9l8.3,19.8c0.7,1.8,1,3.7,0.8,5.6     C98.2,97.8,96.5,99.3,94.4,99.3z" fill="#FFFFFF"/></g></g><g><g><path d="M56.9,46.1c0,1.1,0.9,2,2,2h10.3c1.1,0,2-0.9,2-2L70.2,4H57.8L56.9,46.1z" fill="#FFE3C1"/></g></g><g><g><path d="M69.6,46.2c0,0.2-0.1,0.3-0.1,0.4c-0.1,0.1-0.2,0.2-0.4,0.2H58.9c-0.2,0-0.3-0.1-0.4-0.2     c-0.1-0.1-0.1-0.2-0.1-0.4L59.3,4h-3l-0.9,42.1c0,0.9,0.3,1.8,1,2.5c0.7,0.7,1.6,1.1,2.5,1.1h10.3c0.9,0,1.8-0.4,2.5-1.1     c0.7-0.7,1-1.6,1-2.5L71.7,4h-3L69.6,46.2z" fill="#62355C"/></g></g><g><g><rect fill="#62355C" height="3" width="11" x="58.5" y="9"/></g></g><g><g><rect fill="#62355C" height="3" width="12" x="58" y="32.5"/></g></g><g><g><rect fill="#62355C" height="3" width="12" x="58" y="37.5"/></g></g><g><g><rect fill="#62355C" height="3" width="13" x="57.5" y="15"/></g></g><g><g><rect fill="#62355C" height="3" width="13" x="57.5" y="21"/></g></g><g><g><rect fill="#62355C" height="3" width="13" x="57.5" y="27"/></g></g><g><g><rect fill="#62355C" height="3" width="13" x="57.5" y="42"/></g></g><g><g><path d="M77.5,123.5h-27c-8.6,0-16.4-4.1-21.3-11.2c-4.9-7.1-6-15.8-3-23.9l8.2-21.9c1.5-4.1,1.7-8.7,0.4-12.9     l-4.8-15.8C28,31,28.7,23.7,31.9,17.3c1.1-2.1,3.3-3.1,5.5-2.5c2.3,0.5,3.8,2.5,3.8,4.8v3.8c0,4.9,4,8.9,8.9,8.9h1     c2.4,0,4.5-1.9,4.6-4l3,0c-0.1,3.8-3.5,7-7.6,7h-1c-6.6,0-11.9-5.4-11.9-11.9v-3.8c0-1.1-0.8-1.7-1.5-1.9s-1.7,0-2.2,1     c-2.9,5.7-3.5,12.3-1.7,18.4l4.8,15.8c1.4,4.8,1.3,10.1-0.5,14.8L29,89.5c-2.7,7.1-1.7,14.8,2.6,21.1c4.3,6.3,11.2,9.9,18.8,9.9     h27c7.6,0,14.5-3.6,18.8-9.9c4.3-6.3,5.3-14,2.6-21.1l-8.3-19.8c-1.7-4.1-1.9-8.7-0.6-12.9l1.7-5.3c2.1-6.6,2.1-13.5,0-20.1     c-0.2-0.8-0.9-0.7-1.1-0.7c-0.3,0-0.9,0.2-0.9,1c0,7.8-6.3,14.1-14.1,14.1c-3.4,0-6.1-2.6-6.2-5.9l3,0c0,1.6,1.5,2.9,3.2,2.9     c6.1,0,11.1-5,11.1-11.1c0-2,1.4-3.7,3.4-4c2-0.3,3.8,0.8,4.5,2.8c2.2,7.1,2.2,14.7,0,21.9l-1.7,5.3c-1.1,3.5-0.9,7.4,0.5,10.8     l8.3,19.9c3,8.1,2,16.8-2.9,23.9C93.9,119.4,86.1,123.5,77.5,123.5z" fill="#62355C"/></g></g><g><g><path d="M72.5,55.9h-17c-0.8,0-1.5-0.7-1.5-1.5v0c0-0.8,0.7-1.5,1.5-1.5h17c0.8,0,1.5,0.7,1.5,1.5v0     C74,55.3,73.3,55.9,72.5,55.9z" fill="#7E7784"/></g></g><g><g><path d="M72.5,67.9h-17c-0.8,0-1.5-0.7-1.5-1.5v0c0-0.8,0.7-1.5,1.5-1.5h17c0.8,0,1.5,0.7,1.5,1.5v0     C74,67.3,73.3,67.9,72.5,67.9z" fill="#7E7784"/></g></g><g><g><path d="M72.5,81.9h-17c-0.8,0-1.5-0.7-1.5-1.5l0,0c0-0.8,0.7-1.5,1.5-1.5h17c0.8,0,1.5,0.7,1.5,1.5l0,0     C74,81.3,73.3,81.9,72.5,81.9z" fill="#7E7784"/></g></g><g><g><path d="M72.3,94.2l-16,2.4c-1.2,0.2-2.3-0.8-2.3-2v-5.7c0-1.1,0.9-2,2-2h16c1.1,0,2,0.9,2,2v3.3     C74,93.2,73.3,94.1,72.3,94.2z" fill="#7E7784"/></g></g><g><g><path d="M56,98.1c-1.9,0-3.5-1.6-3.5-3.5v-5.7c0-1.9,1.6-3.5,3.5-3.5h16c1.9,0,3.5,1.6,3.5,3.5v3.3     c0,1.7-1.3,3.2-3,3.5l-16,2.4C56.3,98.1,56.2,98.1,56,98.1z M56,88.4c-0.3,0-0.5,0.2-0.5,0.5v5.7c0,0.3,0.3,0.5,0.6,0.5l16-2.4     c0.2,0,0.4-0.2,0.4-0.5v-3.3c0-0.3-0.2-0.5-0.5-0.5H56z" fill="#62355C"/></g></g><g><g><circle cx="86" cy="86.8" fill="#7E7784" r="3"/></g></g><g><g><circle cx="93" cy="92.8" fill="#7E7784" r="3"/></g></g><g><g><path d="M75.4,91.9l-2.8-1.1L78,77.9c0.4-0.9,0.5-1.8,0.5-2.7V58.9h3v16.3c0,1.3-0.3,2.7-0.8,3.9L75.4,91.9z" fill="#62355C"/></g></g><g><g><circle cx="64" cy="25.5" fill="#FFFFFF" r="1"/></g></g><g><g><circle cx="64" cy="36.5" fill="#FFFFFF" r="1"/></g></g><g><g><circle cx="61" cy="13.5" fill="#FFFFFF" r="1"/></g></g><g><g><circle cx="67" cy="13.5" fill="#FFFFFF" r="1"/></g></g></g></svg>